<?xml version="1.0" encoding="UTF-8" standalone="no"?>
<!-- Created with Inkscape (http://www.inkscape.org/) -->

<svg
   xmlns:dc="http://purl.org/dc/elements/1.1/"
   xmlns:cc="http://creativecommons.org/ns#"
   xmlns:rdf="http://www.w3.org/1999/02/22-rdf-syntax-ns#"
   xmlns:svg="http://www.w3.org/2000/svg"
   xmlns="http://www.w3.org/2000/svg"
   xmlns:sodipodi="http://sodipodi.sourceforge.net/DTD/sodipodi-0.dtd"
   xmlns:inkscape="http://www.inkscape.org/namespaces/inkscape"
   version="1.1"
   id="svg10"
   width="6144"
   height="4608"
   viewBox="0 0 6144 4608"
   sodipodi:docname="me.svg"
   inkscape:version="0.92.4 5da689c313, 2019-01-14"
   enable-background="new"
   inkscape:export-filename="/home/treborium/Pictures/me_faceless.png"
   inkscape:export-xdpi="10.391794"
   inkscape:export-ydpi="10.391794">
  <metadata
     id="metadata16">
    <rdf:RDF>
      <cc:Work
         rdf:about="">
        <dc:format>image/svg+xml</dc:format>
        <dc:type
           rdf:resource="http://purl.org/dc/dcmitype/StillImage" />
        <dc:title />
      </cc:Work>
    </rdf:RDF>
  </metadata>
  <defs
     id="defs14" />
  <sodipodi:namedview
     pagecolor="#ffffff"
     bordercolor="#666666"
     borderopacity="1"
     objecttolerance="10"
     gridtolerance="10"
     guidetolerance="10"
     inkscape:pageopacity="0"
     inkscape:pageshadow="2"
     inkscape:window-width="1918"
     inkscape:window-height="1045"
     id="namedview12"
     showgrid="false"
     inkscape:zoom="0.13212217"
     inkscape:cx="1907.7477"
     inkscape:cy="1730.8312"
     inkscape:window-x="1920"
     inkscape:window-y="33"
     inkscape:window-maximized="1"
     inkscape:current-layer="layer1"
     showguides="false" />
  <g
     inkscape:groupmode="layer"
     id="layer3"
     inkscape:label="Ears"
     style="display:inline">
    <path
       style="fill:#f5c4a0;fill-opacity:1;stroke:#000000;stroke-width:8;stroke-linecap:butt;stroke-linejoin:miter;stroke-opacity:1;stroke-miterlimit:4;stroke-dasharray:none"
       d="m 2253.5961,1822.699 c -33.3597,-21.2814 -59.6821,-41.9763 -151.375,-68.1188 -25.6364,2.7863 -49.9742,10.7671 -68.1188,43.5203 -18.0507,86.5259 13.4189,149.3051 32.1672,189.2188 49.3741,67.4881 86.5763,110.3777 121.1,177.8658 12.5769,52.3505 34.7536,104.7011 62.4422,157.0516 23.9298,15.7302 32.3504,15.9514 47.3048,22.7062 22.4726,-9.5271 23.3911,-15.4619 32.1672,-22.7062 l -1.8922,-368.9767 z"
       id="path63"
       inkscape:connector-curvature="0"
       sodipodi:nodetypes="cccccccccc" />
    <path
       style="fill:#f5c4a0;fill-opacity:1;stroke:#000000;stroke-width:8;stroke-linecap:butt;stroke-linejoin:miter;stroke-opacity:1;stroke-miterlimit:4;stroke-dasharray:none"
       d="m 3873.4495,2427.094 c 35.6795,12.4333 59.3171,2.1976 81.6167,-9.3658 29.0188,-32.8993 34.4988,-59.9139 50.8432,-89.6446 l 66.899,-97.6725 c 21.4077,-32.2126 42.8153,-60.911 64.223,-89.6446 25.8378,-28.0082 47.0477,-42.1328 69.5749,-60.209 25.5552,-42.0039 62.658,-67.8411 54.8571,-156.5436 -24.3813,-37.723 -63.48,-49.6905 -116.4042,-37.4634 -26.5341,10.3313 -48.1666,15.9069 -82.9547,32.1115 -20.9617,2.4581 -41.9233,-2.1998 -62.885,-6.6899 l -160.5575,529.8397 z"
       id="path4618"
       inkscape:connector-curvature="0"
       sodipodi:nodetypes="cccccccccccc" />
  </g>
  <g
     inkscape:groupmode="layer"
     id="layer4"
     inkscape:label="ear inner">
    <path
       style="fill:#f0c09a;stroke:#000000;stroke-width:3;stroke-linecap:butt;stroke-linejoin:miter;stroke-opacity:1;fill-opacity:1;stroke-miterlimit:4;stroke-dasharray:none;stroke-dashoffset:0"
       d="m 2249.8119,1944.7526 c -30.1283,-39.9164 -73.4725,-73.1429 -111.7213,-109.7143 -24.5773,-11.7814 -32.8705,-26.375 -74.9268,-21.4076 -16.5867,37.4463 -5.5854,83.3841 14.0487,131.1219 32.8647,51.2059 51.5467,55.1009 72.2509,79.6098 63.4163,61.8335 43.3611,89.9776 58.2021,131.7909 15.8984,24.3329 31.9768,48.1256 54.8572,51.5122 19.8909,-0.1788 27.7752,-12.3642 39.4703,-20.7387 l 21.4077,-206.7177 c -24.5296,-11.8188 -45.0061,-11.4783 -73.5888,-35.4565 z"
       id="path4616"
       inkscape:connector-curvature="0"
       sodipodi:nodetypes="cccccccccc" />
    <path
       style="fill:#f0c09a;fill-opacity:1;stroke:#000000;stroke-width:3;stroke-linecap:butt;stroke-linejoin:miter;stroke-opacity:1;stroke-miterlimit:4;stroke-dasharray:none"
       d="m 3964.4321,2095.2753 c 48.9882,-50.9182 108.9648,-101.0905 140.4878,-115.0662 27.0659,-13.3738 51.1535,-31.9752 62.885,-40.1394 21.5413,-12.1306 39.4581,-9.7628 57.5331,-8.0279 18.2982,41.8954 1.7492,83.2377 -18.7317,105.7004 -33.2254,42.4164 -65.3266,73.9584 -97.6725,115.0661 l -36.1255,30.7736 c 0,0 -41.5406,52.3176 -62.885,96.3345 -9.0359,18.1696 -10.1447,36.2384 -32.1114,49.5052 -26.623,2.4774 -67.217,-32.3031 -65.561,-58.8711 16.7518,-89.2313 13.6342,-88.1155 52.1812,-175.2752 z"
       id="path4620"
       inkscape:connector-curvature="0"
       sodipodi:nodetypes="ccccccccccc" />
  </g>
  <g
     inkscape:groupmode="layer"
     id="layer1"
     inkscape:label="hair"
     style="display:inline">
    <path
       style="fill:#784421;stroke:#000000;stroke-width:8;stroke-linecap:butt;stroke-linejoin:miter;stroke-opacity:1;stroke-miterlimit:4;stroke-dasharray:none"
       d="m 2276.3024,1975.9662 -11.3531,-43.5203 c -8.1995,-90.1943 -5.5221,-130.2521 -32.1672,-257.3376 -21.9344,-126.287 -46.8185,-249.6243 -73.7954,-370.8689 7.9573,-25.8599 14.1088,-51.7198 17.0297,-77.5797 -20.2522,5.8887 -36.0046,20.4192 -52.9813,32.1672 22.1202,-40.3221 43.4214,-81.463 60.5501,-126.7766 38.3778,-96.9873 82.3431,-202.35587 111.6391,-285.72041 24.2351,-62.21255 59.6548,-115.65747 104.0703,-208.1407 11.5454,-25.85991 20.6501,-74.42607 56.7657,-100.28597 118.7896,-36.16245 184.2774,-51.16134 274.3672,-81.36409 124.5758,6.81391 163.1925,-12.95289 227.0626,-18.92188 50.5108,-49.30392 88.7147,-77.48223 130.561,-117.31567 24.7175,-8.77069 51.162,-16.67789 66.2266,-30.27501 33.3974,18.50333 71.3421,27.37793 109.7469,35.95157 -0.2501,-12.67509 5.1578,-22.64793 -32.1672,-56.76564 18.9219,6.29693 64.6034,12.78301 83.5253,13.83891 20.9616,10.01573 56.197,30.47854 77.3107,42.92673 15.8153,6.93802 32.6627,13.87605 41.6282,20.81407 l 11.3531,-34.05938 c 33.2547,19.83549 51.4593,9.57066 75.6875,11.35312 l 35.9516,41.62814 c 52.3506,25.10313 49.3517,5.9266 70.0109,5.67657 8.808,-4.24631 12.062,-13.87979 34.0594,-18.92188 10.2287,21.86996 28.3332,31.9263 45.4125,43.52033 15.5897,23.80585 13.1006,43.99595 11.3532,64.33439 46.6499,5.01369 79.8958,-7.84455 111.6391,-22.70625 -12.4294,19.10703 -28.0194,35.05355 -35.9516,58.65783 23.9361,17.66042 33.6023,35.32085 85.1485,52.98127 0,0 40.1211,-6.3167 35.9515,0 -4.996,7.56875 32.7484,121.10004 37.8438,121.10004 18.2196,9.25291 36.2805,18.74379 64.3344,13.24532 6.2019,30.11508 -4.6239,47.41823 -1.8922,68.11877 l 28.3828,183.54226 13.2454,62.44221 c 20.1833,0.97312 40.3667,2.04941 60.55,-1.89219 -13.2294,39.72804 -13.1178,72.78554 -17.0297,107.85474 l 30.275,94.6094 17.0297,88.9328 -7.5688,87.0407 c -27.998,133.4224 -74.6992,260.6104 -75.6874,403.036 -11.11,35.5641 -20.1864,73.1617 -35.9517,104.0704 l -47.3047,208.1407 -71.9031,-28.3828 -275.5724,-375.5741 -891.0297,-27.9934 z"
       id="path39"
       inkscape:connector-curvature="0"
       sodipodi:nodetypes="cccccccccccccccccccccccccccccsccccccccccccccccc" />
  </g>
  <g
     inkscape:groupmode="layer"
     id="layer15"
     inkscape:label="hair shadow"
     style="display:inline">
    <path
       style="fill:#73411f;fill-opacity:1;stroke:#000000;stroke-width:0;stroke-linecap:butt;stroke-linejoin:miter;stroke-miterlimit:4;stroke-dasharray:none;stroke-opacity:1"
       d="m 3088.051,819.83939 c -114.4627,-176.86067 -45.1039,-313.81476 -34.0594,-333.02511 21.1305,-45.38313 92.9631,-115.26702 126.7766,-138.12973 36.0427,-7.91232 433.8366,36.68856 537.3816,111.63895 66.9428,45.924 299.6366,352.32294 280.0437,395.46746 -13.9292,39.78785 154.091,506.35974 94.6094,512.78294 -79.3048,14.9713 -96.5644,-404.26077 -414.4753,-510.74341 -244.3717,-81.8511 -563.616,-15.1812 -590.2766,-37.9911 z"
       id="path934"
       inkscape:connector-curvature="0"
       sodipodi:nodetypes="ccccccsc" />
    <path
       style="fill:#7d4723;stroke:#000000;stroke-width:0;stroke-linecap:butt;stroke-linejoin:miter;stroke-opacity:1;fill-opacity:1;stroke-miterlimit:4;stroke-dasharray:none"
       d="m 2813.7699,721.17086 c -117.3838,29.87364 -231.203,41.92455 -358.5783,121.75609 -108.2441,108.37632 -132.9145,216.75265 -196.683,325.12895 71.269,-169.5328 46.0823,-349.04377 215.4147,-508.43208 194.5105,-40.40558 253.4783,20.8459 339.8466,61.54704 z"
       id="path938"
       inkscape:connector-curvature="0"
       sodipodi:nodetypes="ccccc" />
  </g>
  <g
     inkscape:groupmode="layer"
     id="layer6"
     inkscape:label="shirt"
     style="display:inline">
    <path
       style="fill:#483737;stroke:#000000;stroke-width:8;stroke-linecap:butt;stroke-linejoin:miter;stroke-opacity:1;stroke-miterlimit:4;stroke-dasharray:none"
       d="m 2376.2509,2908.7665 c -137.1636,-7.662 -245.6614,45.1194 -350.5506,144.5018 -209.9324,73.6093 -422.814,126.5737 -626.1742,246.1881 -141.4399,22.7019 -286.4708,33.5134 -386.6759,90.9826 -86.15927,103.9627 -171.34176,194.6752 -247.52616,280.9756 L 768,5376 c 107.55891,2.0618 290.5547,20.1175 393.3696,14.9564 94.3705,-4.7372 97.7201,64.1117 139.1461,46.5907 18.3775,-7.7728 60.8021,-55.2102 147.0902,-4.7839 0,0 2831.7051,-56.7632 3928.3941,-56.7632 l 2.676,-1605.5749 C 5167.0867,3562.5002 4954.3641,3324.5442 4752.5017,3374.3833 4607.2597,3213.9759 4207.935,3179.4474 3775.777,2967.6376 Z"
       id="path4626"
       inkscape:connector-curvature="0"
       sodipodi:nodetypes="ccccccsssccccc" />
  </g>
  <g
     inkscape:groupmode="layer"
     id="layer7"
     inkscape:label="shadow"
     style="display:inline">
    <path
       style="fill:#453535;fill-opacity:1;stroke:#000000;stroke-width:0;stroke-linecap:butt;stroke-linejoin:miter;stroke-miterlimit:4;stroke-dasharray:none;stroke-opacity:1"
       d="m 2084.8961,3138.1152 291.3547,-143.718 c -31.1926,-9.7129 -66.9058,-17.327 -147.2531,-4.2181 -52.0513,21.7233 -90.6387,74.2586 -145.8887,119.9719 -12.107,16.3785 -0.4985,19.5816 1.7871,27.9642 z"
       id="path4629"
       inkscape:connector-curvature="0"
       sodipodi:nodetypes="ccccc" />
    <path
       style="fill:#453535;fill-opacity:1;stroke:#000000;stroke-width:0;stroke-linecap:butt;stroke-linejoin:miter;stroke-miterlimit:4;stroke-dasharray:none;stroke-opacity:1"
       d="m 2115.4664,3741.3778 c 51.998,94.3636 414.4058,474.3085 484.4002,711.4628 86.51,285.8114 179.4712,772.0084 215.7094,783.3659 l 34.0594,37.8437 c 56.4826,-22.7807 156.0693,-199.8731 215.7095,-329.2407 1.6428,-140.462 -59.8195,-312.4765 -158.9439,-503.3221 -114.2997,-117.7378 -292.7211,-242.5415 -370.8688,-287.6126 -45.9396,-40.2349 -230.2785,-286.1779 -351.947,-427.6345 -28.2333,-11.5351 -53.7415,-3.5419 -68.1188,15.1375 z"
       id="path4631"
       inkscape:connector-curvature="0"
       sodipodi:nodetypes="ccccccccc" />
    <path
       style="fill:#453535;fill-opacity:1;stroke:#000000;stroke-width:0;stroke-linecap:butt;stroke-linejoin:miter;stroke-miterlimit:4;stroke-dasharray:none;stroke-opacity:1"
       d="m 1233.7067,3582.434 c 52.4612,247.4439 199.3062,484.4007 298.9657,726.6003 22.4552,185.5483 40.8486,554.9341 49.1969,828.7784 14.9321,87.4951 25.8051,112.5167 56.7657,136.2375 29.2358,12.002 144.3846,-29.7228 151.375,-64.3344 2.3302,-52.7164 -84.0488,-390.5678 -113.5313,-631.9908 -11.9845,-224.4613 -72.6991,-440.5062 -136.2375,-635.7752 -60.6109,-140.6222 -243.8891,-247.3608 -306.5345,-359.5158 z"
       id="path4633"
       inkscape:connector-curvature="0"
       sodipodi:nodetypes="cccccccc" />
    <path
       style="fill:#453535;fill-opacity:1;stroke:#000000;stroke-width:0;stroke-linecap:butt;stroke-linejoin:miter;stroke-miterlimit:4;stroke-dasharray:none;stroke-opacity:1"
       d="m 3436.2137,3958.9795 c 138.0036,-33.54 299.1792,-127.213 442.7721,-160.836 94.9604,-103.511 179.1271,-264.9064 268.6907,-397.3596 17.1509,-23.9374 22.1936,-83.0691 11.3531,-128.6688 -21.7483,-35.3155 -46.9557,-70.6311 -78.7726,-105.9466 l -340.5334,531.3891 c -99.7664,89.7739 -258.087,134.9611 -303.5099,261.4219 z"
       id="path4635"
       inkscape:connector-curvature="0"
       sodipodi:nodetypes="ccccccc" />
    <path
       style="fill:#453535;fill-opacity:1;stroke:#000000;stroke-width:0;stroke-linecap:butt;stroke-linejoin:miter;stroke-miterlimit:4;stroke-dasharray:none;stroke-opacity:1"
       d="m 924.8766,4494.5801 c 45.17013,-14.2892 324.8309,198.9766 317.8876,223.2782 24.0413,73.3118 39.4119,129.282 49.1969,174.0813 4.676,89.8608 13.9148,181.2425 -22.7063,257.3376 -33.5613,56.8122 -64.3578,115.2833 -132.4532,151.3751 H 837.83595 c -30.1587,-14.3413 -59.53114,-31.8276 -75.68753,-102.1782 44.25957,-111.1688 75.38853,-184.625 121.10004,-264.9063 43.70986,-93.2216 90.17867,-184.6039 79.47187,-314.1033 8.1645,-46.8229 -19.26466,-84.7474 -37.84373,-124.8844 z"
       id="path4637"
       inkscape:connector-curvature="0"
       sodipodi:nodetypes="cccccccccc" />
  </g>
  <g
     inkscape:groupmode="layer"
     id="layer5"
     inkscape:label="neck"
     style="display:inline;">
    <path
       style="fill:#f5c4a0;fill-opacity:1;stroke:#000000;stroke-width:8;stroke-linecap:butt;stroke-linejoin:miter;stroke-opacity:1;stroke-miterlimit:4;stroke-dasharray:none"
       d="m 2412.5105,2696.1899 c -8.5914,100.231 -21.6233,182.6137 -36.2597,298.2073 -116.0357,62.8324 -254.3758,107.405 -291.3547,143.718 -36.8681,25.8138 72.2286,337.259 176.2886,485.1322 292.5341,271.2849 512.335,304.5337 727.8606,323.7909 210.9445,-27.6529 461.7789,2.4057 750.6783,-249.4807 120.639,-128.7273 381.8879,-502.6951 340.5334,-531.3891 -0.7762,-31.4073 -211.6996,-61.5259 -307.457,-123.0394 l 13.6808,-348.4392 -1158.6899,235.4843 z"
       id="path4623"
       inkscape:connector-curvature="0"
       sodipodi:nodetypes="ccccccccccc" />
  </g>
  <g
     inkscape:groupmode="layer"
     id="layer2"
     inkscape:label="Face"
     style="display:inline">
    <path
       style="fill:#ffccaa;stroke:#000000;stroke-width:8;stroke-linecap:butt;stroke-linejoin:miter;stroke-opacity:1;stroke-miterlimit:4;stroke-dasharray:none"
       d="m 2234.4251,1471.777 c 11.6876,-48.6138 18.6557,-95.0164 38.0929,-144.8313 42.7135,-38.1391 54.368,-65.9354 70.011,-102.1782 2.5405,-39.8346 -0.53,-59.3808 5.6765,-96.5016 l 45.4125,-98.3938 c 59.8647,-82.02258 74.1915,-83.2124 117.3157,-119.20781 l 164.6204,-56.76565 c 72.1737,-18.83218 154.2453,-27.18533 221.386,-35.95157 39.0477,-1.08957 62.6618,-5.53018 128.6688,11.35313 46.599,28.53287 80.001,45.61572 136.2376,54.87345 63.6005,-15.01849 84.2654,-53.9431 121.1,-62.4422 53.5372,1.70685 92.5201,14.57245 136.2375,22.70625 l 247.8767,66.22659 c 46.674,10.83542 106.5933,19.57716 140.0219,37.84377 25.9611,15.70078 61.7252,52.61824 83.2563,81.36404 l 24.5984,83.2563 c -2.8199,85.6798 3.0173,105.2431 8.123,123.5465 23.781,31.6075 53.458,48.4916 77.0255,65.6723 26.1889,74.1062 52.8708,148.048 64.3345,227.0627 l -13.2454,153.2672 c -14.8609,86.764 -40.6633,159.8711 -43.5203,175.9734 -2.314,13.0417 -24.5985,170.297 -24.5985,170.297 l -11.3531,90.825 c -85.1832,294.4986 -152.6569,615.5613 -304.6423,809.8566 -72.1992,135.8914 -283.6632,381.958 -314.1032,386.0064 -25.1062,19.209 -444.3515,21.8151 -491.969,-1.8922 -329.8363,-191.3615 -387.3562,-440.742 -461.6939,-654.6971 l -115.4235,-546.8424 -9.4609,-359.5158 z"
       id="path36"
       inkscape:connector-curvature="0"
       sodipodi:nodetypes="ccccccccccccccccccccsccccccccc" />
    <path
       style="fill:#e5b893;stroke:#000000;stroke-width:0;stroke-linecap:butt;stroke-linejoin:miter;stroke-opacity:1;fill-opacity:1;stroke-miterlimit:4;stroke-dasharray:none"
       d="m 3235.2333,3346.2858 c -13.2434,25.7221 193.9112,495.7479 247.5262,496.3902 49.5902,22.3469 593.127,-554.3793 567.3031,-650.2578 -7.0561,-42.6264 -286.8074,-124.5055 -298.3693,-137.1429 -16.368,-11.0829 3.226,-204.0138 20.0697,-268.2648 -128.4454,187.7616 -302.3214,465.8676 -390.0209,533.1847 -59.0006,6.1558 -128.0881,9.7898 -146.5088,26.0906 z"
       id="path931"
       inkscape:connector-curvature="0"
       sodipodi:nodetypes="ccccccc" />
  </g>
  <g
     inkscape:groupmode="layer"
     id="layer9"
     inkscape:label="lower lips"
     style="display:none">
    <path
       style="fill:#b7727d;fill-opacity:1;stroke:#000000;stroke-width:3;stroke-linecap:butt;stroke-linejoin:miter;stroke-miterlimit:4;stroke-dasharray:none;stroke-opacity:1"
       d="m 2793.9921,2821.7744 c 100.5711,109.8089 276.8179,171.083 293.3947,167.2709 40.7558,1.3979 201.5234,-84.9023 302.9414,-160.1753 -232.2739,-44.8559 -414.7266,-26.8806 -596.3361,-7.0956 z"
       id="path4642"
       inkscape:connector-curvature="0"
       sodipodi:nodetypes="cccc" />
  </g>
  <g
     inkscape:groupmode="layer"
     id="layer8"
     inkscape:label="lips"
     style="display:none">
    <path
       style="fill:#a65d68;fill-opacity:1;stroke:#000000;stroke-width:3;stroke-linecap:butt;stroke-linejoin:miter;stroke-miterlimit:4;stroke-dasharray:none;stroke-opacity:1"
       d="m 2793.9921,2821.7744 c 44.9682,6.4937 80.8882,12.6303 130.3847,23.6523 40.5879,1.7557 79.5771,-3.0135 98.3939,-8.5149 33.6961,6.4103 67.4441,14.6169 88.9328,-0.946 67.7696,11.7443 119.277,4.5509 159.8899,-0.9461 39.7359,-8.331 87.5137,-1.3206 118.7348,-6.1497 -48.8288,-12.7715 -98.4627,-34.7751 -140.3724,-50.2758 -12.4678,-4.6114 -24.2521,-8.6473 -35.1281,-11.6933 -29.3022,-8.4252 -109.9202,16.4446 -142.8602,26.4906 -15.167,-9.1136 -82.703,-28.0039 -123.9383,-26.4906 -20.9714,2.3651 -105.3281,43.5779 -154.0371,54.8735 z"
       id="path4640"
       inkscape:connector-curvature="0"
       sodipodi:nodetypes="ccccccscccc" />
  </g>
  <g
     inkscape:groupmode="layer"
     id="layer11"
     inkscape:label="eyebrows">
    <path
       style="display:inline;fill:#693b1b;fill-opacity:1;stroke:#000000;stroke-width:3;stroke-linecap:butt;stroke-linejoin:miter;stroke-miterlimit:4;stroke-dasharray:none;stroke-opacity:1"
       d="m 2341.9392,1850.9058 c 87.7393,-82.1394 256.342,-113.6062 464.3205,-120.3983 121.6538,-4.0237 146.3375,-81.1974 5.7507,-129.6634 -157.1004,11.3294 -393.6911,64.1968 -471.5785,189.4121 -8.1514,20.9737 -2.4009,40.731 1.5073,60.6496 z"
       id="path4650"
       inkscape:connector-curvature="0"
       sodipodi:nodetypes="ccccc" />
  </g>
  <g
     inkscape:groupmode="layer"
     id="layer10"
     inkscape:label="skin shadow"
     style="display:inline">
    <path
       style="fill:#e8ba95;fill-opacity:1;stroke:#000000;stroke-width:0;stroke-linecap:butt;stroke-linejoin:miter;stroke-miterlimit:4;stroke-dasharray:none;stroke-opacity:1"
       d="m 3156.2927,1937.3937 c 22.6734,-107.0572 178.0485,-135.2106 329.1428,-165.9094 -69.3481,54.0811 -187.8006,145.0101 -181.9651,192.669 -3.4266,30.2739 92.9033,216.1799 100.3484,248.8641 23.1916,53.7079 61.1011,300.9901 53.5192,339.8467 -6.0946,20.7348 -191.515,107.7328 -259.568,101.6864 -21.7356,-15.1064 -30.2744,-66.3839 -47.1637,-82.9547 30.7258,-13.6983 60.9039,-28.4919 102.0209,-21.4076 21.8302,-88.9874 -14.5662,-164.5378 -36.1255,-243.5122 0.9889,-291.5623 -39.0305,-255.0586 -60.209,-369.2823 z"
       id="path4665"
       inkscape:connector-curvature="0"
       sodipodi:nodetypes="cccccccccc" />
    <path
       style="fill:#2b1100;stroke:#000000;stroke-width:1px;stroke-linecap:butt;stroke-linejoin:miter;stroke-opacity:1;fill-opacity:0.83221471"
       d="m 2396.3206,2211.6794 c -2.2256,-6.6439 11.8905,-14.9579 17.3937,-8.6968 2.8946,6.8474 2.4975,26.1907 -0.669,30.1045 -4.694,-0.5568 -15.3902,-14.2338 -16.7247,-21.4077 z"
       id="path857"
       inkscape:connector-curvature="0"
       sodipodi:nodetypes="cccc" />
    <path
       style="fill:#e8ba95;fill-opacity:1;stroke:#000000;stroke-width:0;stroke-linecap:butt;stroke-linejoin:miter;stroke-miterlimit:4;stroke-dasharray:none;stroke-opacity:1"
       d="m 2481.9511,1838.3834 c 114.5493,5.3887 263.6331,-24.9307 426.8154,78.9407 9.5877,-55.063 -27.1656,-134.1316 -119.0802,-159.2195 -203.0046,0.071 -295.2554,54.2276 -307.7352,80.2788 z"
       id="path927"
       inkscape:connector-curvature="0"
       sodipodi:nodetypes="cccc" />
    <path
       style="fill:#e8ba95;stroke:#000000;stroke-width:0;stroke-linecap:butt;stroke-linejoin:miter;stroke-opacity:1;fill-opacity:1;stroke-miterlimit:4;stroke-dasharray:none"
       d="m 3097.1277,3006.4031 c 114.1116,-37.9455 210.6157,-96.0138 298.3991,-164.0487 -11.7311,62.1505 -15.7729,93.6089 -108.1874,152.0279 -69.2515,23.0117 -127.7891,11.203 -190.2117,12.0208 z"
       id="path867"
       inkscape:connector-curvature="0"
       sodipodi:nodetypes="cccc" />
  </g>
  <g
     inkscape:groupmode="layer"
     id="layer12"
     inkscape:label="nose"
     style="display:none">
    <path
       style="fill:#fccaa6;fill-opacity:1;stroke:#000000;stroke-width:3;stroke-linecap:butt;stroke-linejoin:miter;stroke-miterlimit:4;stroke-dasharray:none;stroke-opacity:1"
       d="m 3188.4042,1977.5331 c 37.3048,118.6009 30.6289,252.2169 28.0975,329.1429 114.7042,124.4814 149.3,215.1671 36.1255,243.5122 -77.7443,-17.254 -141.148,60.7974 -172.5993,52.1811 -34.6524,0.588 -86.8439,-76.7686 -163.2335,-53.5191 -186.1961,-25.1136 -3.1865,-178.1381 16.0558,-247.5261 28.6199,-53.282 37.9811,-186.1173 66.8989,-334.4948 77.6864,-112.7284 135.7412,-71.2087 188.6551,10.7038 z"
       id="path4657"
       inkscape:connector-curvature="0"
       sodipodi:nodetypes="cccccccc" />
    <path
       style="fill:#edbe98;fill-opacity:1;stroke:#000000;stroke-width:1px;stroke-linecap:butt;stroke-linejoin:miter;stroke-opacity:1"
       d="m 2986.346,2552.6106 c -20.8528,-9.0939 -39.1307,-23.8286 -63.3883,-28.3828 -12.2636,7.6739 -17.0695,10.3391 1.8922,21.7601 18.4374,-1.5882 41.6087,3.4497 61.4961,6.6227 z"
       id="path4663"
       inkscape:connector-curvature="0"
       sodipodi:nodetypes="cccc" />
    <path
       style="fill:#edbe98;fill-opacity:1;stroke:#000000;stroke-width:1px;stroke-linecap:butt;stroke-linejoin:miter;stroke-opacity:1"
       d="m 3150.6063,2571.5958 c 19.0339,-16.9332 39.7364,-33.8777 60.5435,-45.4913 15.8336,-1.7847 39.066,-10.788 20.0697,21.4077 -29.2945,0.7202 -54.7003,17.6157 -80.6132,24.0836 z"
       id="path4661"
       inkscape:connector-curvature="0"
       sodipodi:nodetypes="cccc" />
  </g>
  <g
     inkscape:groupmode="layer"
     id="layer13"
     inkscape:label="eye"
     style="display:none">
    <path
       style="fill:#e6e6e6;stroke:#000000;stroke-width:3;stroke-linecap:butt;stroke-linejoin:miter;stroke-miterlimit:4;stroke-dasharray:none;stroke-opacity:1"
       d="m 2562.0227,1911.6319 c 43.6762,51.2032 72.6792,71.0992 140.495,74.7415 7.2272,1.5398 85.2449,-26.8323 185.9075,-17.0297 -89.4347,-99.3189 -137.0838,-98.8037 -174.5544,-100.7591 0,0 -99.6219,4.4636 -151.8481,43.0473 z"
       id="path916"
       inkscape:connector-curvature="0"
       sodipodi:nodetypes="ccccc" />
    <path
       style="fill:#e6e6e6;fill-opacity:1;stroke:#000000;stroke-width:3;stroke-linecap:butt;stroke-linejoin:miter;stroke-miterlimit:4;stroke-dasharray:none;stroke-opacity:1"
       d="m 3342.2717,1970.1743 c 88.2353,8.6274 144.0776,47.7117 209.3937,42.1463 35.4869,-10.977 61.6887,-10.2255 129.115,-61.547 -43.4744,-24.7686 -124.0464,-67.8154 -184.6411,-60.2091 -38.1495,0.8041 -114.3963,50.1187 -153.8676,79.6098 z"
       id="path920"
       inkscape:connector-curvature="0"
       sodipodi:nodetypes="ccccc" />
  </g>
  <path
     style="fill:#693b1b;fill-opacity:1;stroke:#000000;stroke-width:3;stroke-linecap:butt;stroke-linejoin:miter;stroke-miterlimit:4;stroke-dasharray:none;stroke-opacity:1"
     d="m 3427.4236,1743.8021 c -59.1249,-28.893 -184.1543,-88.4446 14.9842,-127.8493 86.1399,-7.6781 342.6796,59.5353 439.9814,192.346 13.4631,14.7904 9.529,28.0587 11.5342,41.8466 -135.6346,-36.1546 -139.4045,-109.2552 -466.4998,-106.3433 z"
     id="path4654"
     inkscape:connector-curvature="0"
     sodipodi:nodetypes="ccccc" />
  <path
     style="fill:#2b1100;stroke:#000000;stroke-width:1px;stroke-linecap:butt;stroke-linejoin:miter;stroke-opacity:1;fill-opacity:0.61073828"
     d="m 3687.8748,2387.7537 c -2.6329,-7.1154 7.9757,-20.7716 13.0088,-19.6315 5.3532,-0.8241 10.1508,11.5004 13.2453,19.395 1.7443,4.0101 -24.766,4.7393 -26.2541,0.2365 z"
     id="path859"
     inkscape:connector-curvature="0"
     sodipodi:nodetypes="cccc" />
  <g
     inkscape:groupmode="layer"
     id="layer14"
     inkscape:label="Pupil"
     style="display:none">
    <path
       style="fill:#2b1100;stroke:#000000;stroke-width:3;stroke-linecap:butt;stroke-linejoin:miter;stroke-miterlimit:4;stroke-dasharray:none;stroke-opacity:1"
       d="m 2622.7734,1883.8746 c 53.7156,-12.7076 107.0648,-24.3084 158.2161,-1.0035 6.5092,66.0494 -44.6819,102.4959 -80.2788,102.69 -46.6029,1.8311 -82.2923,-49.79 -77.9373,-101.6865 z"
       id="path923"
       inkscape:connector-curvature="0"
       sodipodi:nodetypes="cccc" />
    <path
       style="fill:#2b1100;stroke:#000000;stroke-width:3;stroke-linecap:butt;stroke-linejoin:miter;stroke-opacity:1;stroke-miterlimit:4;stroke-dasharray:none"
       d="m 3458.6759,1899.2614 c 50.8782,-21.1279 135.4297,-0.1566 152.8641,18.0628 0.5063,45.1338 -40.2469,106.2342 -94.3275,94.662 -15.1561,-2.9577 -80.5264,-27.4221 -58.5366,-112.7248 z"
       id="path925"
       inkscape:connector-curvature="0"
       sodipodi:nodetypes="cccc" />
  </g>
  <path
     style="fill:#e8ba95;fill-opacity:1;stroke:#000000;stroke-width:0;stroke-linecap:butt;stroke-linejoin:miter;stroke-miterlimit:4;stroke-dasharray:none;stroke-opacity:1"
     d="m 3322.6823,923.90973 c 230.1731,118.47577 192.0031,296.60947 282.7764,434.73137 87.0186,132.4086 188.8578,169.4414 288.6644,314.5752 31.8306,41.9364 16.7747,102.934 34.0594,140.0218 -55.8431,277.6257 -120.9476,543.3441 -211.925,775.7972 -72.5675,250.4224 -337.0007,418.5379 -522.244,520.3517 -27.0465,89.941 -26.8641,129.1555 7.1007,211.9447 46.59,-5.0753 118.9264,7.0254 154.1977,-22.3755 134.8224,-112.3832 299.7071,-356.8657 411.3461,-546.0844 121.376,-330.3653 197.9267,-702.1228 265.7852,-1068.8567 -6.8546,-68.4879 21.2664,-149.8581 2.3953,-230.453 -21.3103,-91.0119 -90.7623,-179.5623 -117.4508,-219.8665 -22.4923,-33.9672 -43.4567,-133.6212 -44.0786,-183.0093 -84.0002,-108.08242 -207.3706,-133.60355 -525.5692,-207.12732 -18.9385,-2.72424 -52.5624,21.47401 -25.0576,80.35075 z"
     id="path929"
     inkscape:connector-curvature="0"
     sodipodi:nodetypes="cscccccsccssccc" />
</svg>
